# xmcd
#
# Track frame offsets: 
#        150
#        18360
#        34727
#        56747
#
# Disc length: 961 seconds
#
# Revision: 0
# Processed by: cddbd v1.5.1PL0 Copyright (c) Steve Scherf et al.
# Submitted via: ExactAudioCopy v0.95a4
#
DISCID=2b03bf04
DTITLE=Keb' Mo - More Than One Way Home (single)
DYEAR=1997
DGENRE=Blues
TTITLE0=More Than One Way Home (radio edit)
TTITLE1=Take It Away
TTITLE2=More Than One Way Home
TTITLE3=Love In Vain (live)
EXTD=
EXTT0=
EXTT1=
EXTT2=
EXTT3=
PLAYORDER=
